<svg width="134" height="42" viewBox="0 0 134 42" fill="none" xmlns="http://www.w3.org/2000/svg">
<path d="M41.3999 29L41.3999 14.6L43.8399 14.6L48.5999 24.16L53.3599 14.6L55.7999 14.6L55.7999 29L53.2599 29L53.2599 20.4L49.0799 29L48.1199 29L43.9399 20.4L43.9399 29L41.3999 29ZM62.967 29.3C61.8803 29.3 60.927 29.0567 60.107 28.57C59.287 28.0833 58.647 27.4133 58.187 26.56C57.7336 25.7 57.507 24.7133 57.507 23.6C57.507 22.4733 57.7403 21.4833 58.207 20.63C58.6736 19.77 59.317 19.1 60.137 18.62C60.957 18.14 61.9003 17.9 62.967 17.9C64.0536 17.9 65.007 18.1433 65.827 18.63C66.6536 19.1167 67.297 19.79 67.757 20.65C68.217 21.5033 68.447 22.4867 68.447 23.6C68.447 24.72 68.2136 25.71 67.747 26.57C67.287 27.4233 66.6436 28.0933 65.817 28.58C64.997 29.06 64.047 29.3 62.967 29.3ZM62.967 26.76C63.8403 26.76 64.4903 26.4667 64.917 25.88C65.3503 25.2867 65.567 24.5267 65.567 23.6C65.567 22.64 65.347 21.8733 64.907 21.3C64.4736 20.7267 63.827 20.44 62.967 20.44C62.3736 20.44 61.887 20.5733 61.507 20.84C61.127 21.1067 60.8436 21.4767 60.657 21.95C60.477 22.4233 60.387 22.9733 60.387 23.6C60.387 24.5667 60.6036 25.3367 61.037 25.91C61.477 26.4767 62.1203 26.76 62.967 26.76ZM77.506 29L77.506 23.9C77.506 23.6533 77.4927 23.34 77.466 22.96C77.4394 22.5733 77.356 22.1867 77.216 21.8C77.076 21.4133 76.846 21.09 76.526 20.83C76.2127 20.57 75.766 20.44 75.186 20.44C74.9527 20.44 74.7027 20.4767 74.436 20.55C74.1694 20.6233 73.9194 20.7667 73.686 20.98C73.4527 21.1867 73.2594 21.4933 73.106 21.9C72.9594 22.3067 72.886 22.8467 72.886 23.52L71.326 22.78C71.326 21.9267 71.4994 21.1267 71.846 20.38C72.1927 19.6333 72.7127 19.03 73.406 18.57C74.106 18.11 74.986 17.88 76.046 17.88C76.8927 17.88 77.5827 18.0233 78.116 18.31C78.6494 18.5967 79.0627 18.96 79.356 19.4C79.656 19.84 79.8694 20.3 79.996 20.78C80.1227 21.2533 80.1994 21.6867 80.226 22.08C80.2527 22.4733 80.266 22.76 80.266 22.94L80.266 29L77.506 29ZM70.126 29L70.126 14.6L72.546 14.6L72.546 22L72.886 22L72.886 29L70.126 29ZM85.3609 29.3C84.5875 29.3 83.9309 29.1533 83.3909 28.86C82.8575 28.56 82.4509 28.1633 82.1709 27.67C81.8975 27.17 81.7609 26.62 81.7609 26.02C81.7609 25.52 81.8375 25.0633 81.9909 24.65C82.1442 24.2367 82.3909 23.8733 82.7309 23.56C83.0775 23.24 83.5409 22.9733 84.1209 22.76C84.5209 22.6133 84.9975 22.4833 85.5509 22.37C86.1042 22.2567 86.7309 22.15 87.4309 22.05C88.1309 21.9433 88.9009 21.8267 89.7409 21.7L88.7609 22.24C88.7609 21.6 88.6075 21.13 88.3009 20.83C87.9942 20.53 87.4809 20.38 86.7609 20.38C86.3609 20.38 85.9442 20.4767 85.5109 20.67C85.0775 20.8633 84.7742 21.2067 84.6009 21.7L82.1409 20.92C82.4142 20.0267 82.9275 19.3 83.6809 18.74C84.4342 18.18 85.4609 17.9 86.7609 17.9C87.7142 17.9 88.5609 18.0467 89.3009 18.34C90.0409 18.6333 90.6009 19.14 90.9809 19.86C91.1942 20.26 91.3209 20.66 91.3609 21.06C91.4009 21.46 91.4209 21.9067 91.4209 22.4L91.4209 29L89.0409 29L89.0409 26.78L89.3809 27.24C88.8542 27.9667 88.2842 28.4933 87.6709 28.82C87.0642 29.14 86.2942 29.3 85.3609 29.3ZM85.9409 27.16C86.4409 27.16 86.8609 27.0733 87.2009 26.9C87.5475 26.72 87.8209 26.5167 88.0209 26.29C88.2275 26.0633 88.3675 25.8733 88.4409 25.72C88.5809 25.4267 88.6609 25.0867 88.6809 24.7C88.7075 24.3067 88.7209 23.98 88.7209 23.72L89.5209 23.92C88.7142 24.0533 88.0609 24.1667 87.5609 24.26C87.0609 24.3467 86.6575 24.4267 86.3509 24.5C86.0442 24.5733 85.7742 24.6533 85.5409 24.74C85.2742 24.8467 85.0575 24.9633 84.8909 25.09C84.7309 25.21 84.6109 25.3433 84.5309 25.49C84.4575 25.6367 84.4209 25.8 84.4209 25.98C84.4209 26.2267 84.4809 26.44 84.6009 26.62C84.7275 26.7933 84.9042 26.9267 85.1309 27.02C85.3575 27.1133 85.6275 27.16 85.9409 27.16ZM106.521 29L106.521 22.62C106.521 21.9067 106.351 21.3533 106.011 20.96C105.678 20.56 105.214 20.36 104.621 20.36C104.241 20.36 103.911 20.45 103.631 20.63C103.351 20.8033 103.131 21.05 102.971 21.37C102.818 21.6833 102.741 22.0467 102.741 22.46L101.601 21.7C101.601 20.96 101.774 20.3067 102.121 19.74C102.474 19.1733 102.944 18.7333 103.531 18.42C104.124 18.1 104.781 17.94 105.501 17.94C106.734 17.94 107.664 18.3067 108.291 19.04C108.924 19.7667 109.241 20.72 109.241 21.9L109.241 29L106.521 29ZM93.501 29L93.501 18.2L95.901 18.2L95.901 21.78L96.241 21.78L96.241 29L93.501 29ZM100.021 29L100.021 22.62C100.021 21.9067 99.851 21.3533 99.511 20.96C99.1777 20.56 98.7144 20.36 98.121 20.36C97.5544 20.36 97.0977 20.5567 96.751 20.95C96.411 21.3367 96.241 21.84 96.241 22.46L95.101 21.66C95.101 20.9533 95.2777 20.32 95.631 19.76C95.9844 19.2 96.4577 18.7567 97.051 18.43C97.651 18.1033 98.321 17.94 99.061 17.94C99.9077 17.94 100.601 18.12 101.141 18.48C101.688 18.84 102.091 19.32 102.351 19.92C102.611 20.52 102.741 21.18 102.741 21.9L102.741 29L100.021 29ZM116.166 29.3C115.059 29.3 114.083 29.0633 113.236 28.59C112.396 28.11 111.736 27.4533 111.256 26.62C110.783 25.78 110.546 24.82 110.546 23.74C110.546 22.56 110.779 21.5333 111.246 20.66C111.713 19.7867 112.356 19.11 113.176 18.63C113.996 18.1433 114.939 17.9 116.006 17.9C117.139 17.9 118.103 18.1667 118.896 18.7C119.689 19.2333 120.276 19.9833 120.656 20.95C121.036 21.9167 121.169 23.0533 121.056 24.36L118.366 24.36L118.366 23.36C118.366 22.26 118.189 21.47 117.836 20.99C117.489 20.5033 116.919 20.26 116.126 20.26C115.199 20.26 114.516 20.5433 114.076 21.11C113.643 21.67 113.426 22.5 113.426 23.6C113.426 24.6067 113.643 25.3867 114.076 25.94C114.516 26.4867 115.159 26.76 116.006 26.76C116.539 26.76 116.996 26.6433 117.376 26.41C117.756 26.1767 118.046 25.84 118.246 25.4L120.966 26.18C120.559 27.1667 119.916 27.9333 119.036 28.48C118.163 29.0267 117.206 29.3 116.166 29.3ZM112.586 24.36L112.586 22.34L119.746 22.34L119.746 24.36L112.586 24.36ZM127.194 29.3C126.201 29.3 125.331 29.05 124.584 28.55C123.837 28.05 123.254 27.37 122.834 26.51C122.421 25.65 122.214 24.68 122.214 23.6C122.214 22.5 122.424 21.5233 122.844 20.67C123.271 19.81 123.867 19.1333 124.634 18.64C125.401 18.1467 126.301 17.9 127.334 17.9C128.361 17.9 129.224 18.15 129.924 18.65C130.624 19.15 131.154 19.83 131.514 20.69C131.874 21.55 132.054 22.52 132.054 23.6C132.054 24.68 131.871 25.65 131.504 26.51C131.144 27.37 130.604 28.05 129.884 28.55C129.164 29.05 128.267 29.3 127.194 29.3ZM127.634 26.88C128.241 26.88 128.724 26.7433 129.084 26.47C129.451 26.1967 129.714 25.8133 129.874 25.32C130.034 24.8267 130.114 24.2533 130.114 23.6C130.114 22.9467 130.034 22.3733 129.874 21.88C129.714 21.3867 129.457 21.0033 129.104 20.73C128.757 20.4567 128.301 20.32 127.734 20.32C127.127 20.32 126.627 20.47 126.234 20.77C125.847 21.0633 125.561 21.46 125.374 21.96C125.187 22.4533 125.094 23 125.094 23.6C125.094 24.2067 125.184 24.76 125.364 25.26C125.544 25.7533 125.821 26.1467 126.194 26.44C126.567 26.7333 127.047 26.88 127.634 26.88ZM130.114 29L130.114 21.6L129.774 21.6L129.774 14.6L132.514 14.6L132.514 29L130.114 29Z" fill="#DEDEDE"/>
<path d="M11.3938 35.4538L17.7277 17.2308H22.6108L14.0123 42H8.81077L0.212308 17.2308H5.09538L11.3938 35.4538Z" fill="#DEDEDE"/>
<path d="M17.6061 7.39234L11.2722 25.6154L6.38917 25.6154L14.9876 0.84619L20.1892 0.846191L28.7876 25.6154L23.9046 25.6154L17.6061 7.39234Z" fill="#DEDEDE"/>
</svg>
